<svg width="227" height="40" viewBox="0 0 227 40" fill="none" xmlns="http://www.w3.org/2000/svg">
<path d="M9.35211 2.85061C9.82005 1.15867 11.2557 0 12.8841 0H222.746C225.215 0 226.987 2.58294 226.277 5.14939L217.428 37.1494C216.96 38.8413 215.524 40 213.896 40H4.03413C1.56403 40 -0.207608 37.4171 0.502171 34.8506L9.35211 2.85061Z" fill="#F4796C"/>
<path d="M32.74 27.5V15.64H28.2V13.1H40V15.64H35.46V27.5H32.74ZM44.8655 27.8C43.7788 27.8 42.8255 27.5567 42.0055 27.07C41.1855 26.5833 40.5455 25.9133 40.0855 25.06C39.6321 24.2 39.4055 23.2133 39.4055 22.1C39.4055 20.9733 39.6388 19.9833 40.1055 19.13C40.5721 18.27 41.2155 17.6 42.0355 17.12C42.8555 16.64 43.7988 16.4 44.8655 16.4C45.9521 16.4 46.9055 16.6433 47.7255 17.13C48.5521 17.6167 49.1955 18.29 49.6555 19.15C50.1155 20.0033 50.3455 20.9867 50.3455 22.1C50.3455 23.22 50.1121 24.21 49.6455 25.07C49.1855 25.9233 48.5421 26.5933 47.7155 27.08C46.8955 27.56 45.9455 27.8 44.8655 27.8ZM44.8655 25.26C45.7388 25.26 46.3888 24.9667 46.8155 24.38C47.2488 23.7867 47.4655 23.0267 47.4655 22.1C47.4655 21.14 47.2455 20.3733 46.8055 19.8C46.3721 19.2267 45.7255 18.94 44.8655 18.94C44.2721 18.94 43.7855 19.0733 43.4055 19.34C43.0255 19.6067 42.7421 19.9767 42.5555 20.45C42.3755 20.9233 42.2855 21.4733 42.2855 22.1C42.2855 23.0667 42.5021 23.8367 42.9355 24.41C43.3755 24.9767 44.0188 25.26 44.8655 25.26ZM56.9245 27.8C55.9312 27.8 55.0612 27.55 54.3145 27.05C53.5679 26.55 52.9845 25.87 52.5645 25.01C52.1512 24.15 51.9445 23.18 51.9445 22.1C51.9445 21 52.1545 20.0233 52.5745 19.17C53.0012 18.31 53.5979 17.6333 54.3645 17.14C55.1312 16.6467 56.0312 16.4 57.0645 16.4C58.0912 16.4 58.9545 16.65 59.6545 17.15C60.3545 17.65 60.8845 18.33 61.2445 19.19C61.6045 20.05 61.7845 21.02 61.7845 22.1C61.7845 23.18 61.6012 24.15 61.2345 25.01C60.8745 25.87 60.3345 26.55 59.6145 27.05C58.8945 27.55 57.9979 27.8 56.9245 27.8ZM57.3645 25.38C57.9712 25.38 58.4545 25.2433 58.8145 24.97C59.1812 24.6967 59.4445 24.3133 59.6045 23.82C59.7645 23.3267 59.8445 22.7533 59.8445 22.1C59.8445 21.4467 59.7645 20.8733 59.6045 20.38C59.4445 19.8867 59.1879 19.5033 58.8345 19.23C58.4879 18.9567 58.0312 18.82 57.4645 18.82C56.8579 18.82 56.3579 18.97 55.9645 19.27C55.5779 19.5633 55.2912 19.96 55.1045 20.46C54.9179 20.9533 54.8245 21.5 54.8245 22.1C54.8245 22.7067 54.9145 23.26 55.0945 23.76C55.2745 24.2533 55.5512 24.6467 55.9245 24.94C56.2979 25.2333 56.7779 25.38 57.3645 25.38ZM59.8445 27.5V20.1H59.5045V13.1H62.2445V27.5H59.8445ZM68.0445 27.8C67.2712 27.8 66.6145 27.6533 66.0745 27.36C65.5412 27.06 65.1345 26.6633 64.8545 26.17C64.5812 25.67 64.4445 25.12 64.4445 24.52C64.4445 24.02 64.5212 23.5633 64.6745 23.15C64.8279 22.7367 65.0745 22.3733 65.4145 22.06C65.7612 21.74 66.2245 21.4733 66.8045 21.26C67.2045 21.1133 67.6812 20.9833 68.2345 20.87C68.7879 20.7567 69.4145 20.65 70.1145 20.55C70.8145 20.4433 71.5845 20.3267 72.4245 20.2L71.4445 20.74C71.4445 20.1 71.2912 19.63 70.9845 19.33C70.6779 19.03 70.1645 18.88 69.4445 18.88C69.0445 18.88 68.6279 18.9767 68.1945 19.17C67.7612 19.3633 67.4579 19.7067 67.2845 20.2L64.8245 19.42C65.0979 18.5267 65.6112 17.8 66.3645 17.24C67.1179 16.68 68.1445 16.4 69.4445 16.4C70.3979 16.4 71.2445 16.5467 71.9845 16.84C72.7245 17.1333 73.2845 17.64 73.6645 18.36C73.8779 18.76 74.0045 19.16 74.0445 19.56C74.0845 19.96 74.1045 20.4067 74.1045 20.9V27.5H71.7245V25.28L72.0645 25.74C71.5379 26.4667 70.9679 26.9933 70.3545 27.32C69.7479 27.64 68.9779 27.8 68.0445 27.8ZM68.6245 25.66C69.1245 25.66 69.5445 25.5733 69.8845 25.4C70.2312 25.22 70.5045 25.0167 70.7045 24.79C70.9112 24.5633 71.0512 24.3733 71.1245 24.22C71.2645 23.9267 71.3445 23.5867 71.3645 23.2C71.3912 22.8067 71.4045 22.48 71.4045 22.22L72.2045 22.42C71.3979 22.5533 70.7445 22.6667 70.2445 22.76C69.7445 22.8467 69.3412 22.9267 69.0345 23C68.7279 23.0733 68.4579 23.1533 68.2245 23.24C67.9579 23.3467 67.7412 23.4633 67.5745 23.59C67.4145 23.71 67.2945 23.8433 67.2145 23.99C67.1412 24.1367 67.1045 24.3 67.1045 24.48C67.1045 24.7267 67.1645 24.94 67.2845 25.12C67.4112 25.2933 67.5879 25.4267 67.8145 25.52C68.0412 25.6133 68.3112 25.66 68.6245 25.66ZM77.4792 32.3L79.5592 26.58L79.5992 28.26L74.8992 16.7H77.7192L80.8792 24.88H80.2392L83.3792 16.7H86.0992L79.9992 32.3H77.4792ZM87.9055 18.52L88.0655 17.38C88.3855 17.4067 88.6455 17.3567 88.8455 17.23C89.0455 17.0967 89.1821 16.91 89.2555 16.67C89.3355 16.4233 89.3521 16.14 89.3055 15.82H87.9055V13.1H90.6255V15.82C90.6255 16.78 90.4021 17.5067 89.9555 18C89.5088 18.4933 88.8255 18.6667 87.9055 18.52ZM96.2177 27.8C94.8577 27.8 93.7577 27.4933 92.9177 26.88C92.0843 26.26 91.5777 25.3867 91.3977 24.26L94.1777 23.84C94.291 24.3467 94.541 24.7433 94.9277 25.03C95.321 25.3167 95.8177 25.46 96.4177 25.46C96.911 25.46 97.291 25.3667 97.5577 25.18C97.8243 24.9867 97.9577 24.72 97.9577 24.38C97.9577 24.1667 97.9043 23.9967 97.7977 23.87C97.691 23.7367 97.451 23.6067 97.0777 23.48C96.711 23.3533 96.1377 23.1867 95.3577 22.98C94.4777 22.7533 93.7743 22.5 93.2477 22.22C92.721 21.94 92.341 21.6067 92.1077 21.22C91.8743 20.8267 91.7577 20.3533 91.7577 19.8C91.7577 19.1067 91.9343 18.5067 92.2877 18C92.641 17.4867 93.1377 17.0933 93.7777 16.82C94.4243 16.54 95.1843 16.4 96.0577 16.4C96.9043 16.4 97.6543 16.53 98.3077 16.79C98.961 17.05 99.4877 17.42 99.8877 17.9C100.294 18.38 100.544 18.9467 100.638 19.6L97.8577 20.1C97.811 19.7 97.6377 19.3833 97.3377 19.15C97.0377 18.9167 96.631 18.78 96.1177 18.74C95.6177 18.7067 95.2143 18.7733 94.9077 18.94C94.6077 19.1067 94.4577 19.3467 94.4577 19.66C94.4577 19.8467 94.521 20.0033 94.6477 20.13C94.781 20.2567 95.051 20.3867 95.4577 20.52C95.871 20.6533 96.4977 20.8267 97.3377 21.04C98.1577 21.2533 98.8143 21.5033 99.3077 21.79C99.8077 22.07 100.171 22.41 100.398 22.81C100.624 23.2033 100.738 23.68 100.738 24.24C100.738 25.3467 100.338 26.2167 99.5377 26.85C98.7377 27.4833 97.631 27.8 96.2177 27.8ZM112.379 27.8C111.312 27.8 110.349 27.6133 109.489 27.24C108.636 26.86 107.932 26.32 107.379 25.62C106.832 24.9133 106.486 24.0733 106.339 23.1L109.179 22.68C109.379 23.5067 109.792 24.1433 110.419 24.59C111.046 25.0367 111.759 25.26 112.559 25.26C113.006 25.26 113.439 25.19 113.859 25.05C114.279 24.91 114.622 24.7033 114.889 24.43C115.162 24.1567 115.299 23.82 115.299 23.42C115.299 23.2733 115.276 23.1333 115.229 23C115.189 22.86 115.119 22.73 115.019 22.61C114.919 22.49 114.776 22.3767 114.589 22.27C114.409 22.1633 114.179 22.0667 113.899 21.98L110.159 20.88C109.879 20.8 109.552 20.6867 109.179 20.54C108.812 20.3933 108.456 20.1833 108.109 19.91C107.762 19.6367 107.472 19.2767 107.239 18.83C107.012 18.3767 106.899 17.8067 106.899 17.12C106.899 16.1533 107.142 15.35 107.629 14.71C108.116 14.07 108.766 13.5933 109.579 13.28C110.392 12.9667 111.292 12.8133 112.279 12.82C113.272 12.8333 114.159 13.0033 114.939 13.33C115.719 13.6567 116.372 14.1333 116.899 14.76C117.426 15.38 117.806 16.14 118.039 17.04L115.099 17.54C114.992 17.0733 114.796 16.68 114.509 16.36C114.222 16.04 113.879 15.7967 113.479 15.63C113.086 15.4633 112.672 15.3733 112.239 15.36C111.812 15.3467 111.409 15.4067 111.029 15.54C110.656 15.6667 110.349 15.8533 110.109 16.1C109.876 16.3467 109.759 16.64 109.759 16.98C109.759 17.2933 109.856 17.55 110.049 17.75C110.242 17.9433 110.486 18.1 110.779 18.22C111.072 18.34 111.372 18.44 111.679 18.52L114.179 19.2C114.552 19.3 114.966 19.4333 115.419 19.6C115.872 19.76 116.306 19.9867 116.719 20.28C117.139 20.5667 117.482 20.9467 117.749 21.42C118.022 21.8933 118.159 22.4933 118.159 23.22C118.159 23.9933 117.996 24.67 117.669 25.25C117.349 25.8233 116.916 26.3 116.369 26.68C115.822 27.0533 115.202 27.3333 114.509 27.52C113.822 27.7067 113.112 27.8 112.379 27.8ZM125.657 27.8C124.584 27.8 123.687 27.55 122.967 27.05C122.247 26.55 121.704 25.87 121.337 25.01C120.977 24.15 120.797 23.18 120.797 22.1C120.797 21.02 120.977 20.05 121.337 19.19C121.697 18.33 122.227 17.65 122.927 17.15C123.627 16.65 124.49 16.4 125.517 16.4C126.55 16.4 127.45 16.6467 128.217 17.14C128.984 17.6333 129.577 18.31 129.997 19.17C130.424 20.0233 130.637 21 130.637 22.1C130.637 23.18 130.427 24.15 130.007 25.01C129.594 25.87 129.014 26.55 128.267 27.05C127.52 27.55 126.65 27.8 125.657 27.8ZM120.337 32.3V16.7H122.737V24.1H123.077V32.3H120.337ZM125.217 25.38C125.804 25.38 126.284 25.2333 126.657 24.94C127.03 24.6467 127.307 24.2533 127.487 23.76C127.667 23.26 127.757 22.7067 127.757 22.1C127.757 21.5 127.664 20.9533 127.477 20.46C127.29 19.96 127 19.5633 126.607 19.27C126.22 18.97 125.724 18.82 125.117 18.82C124.55 18.82 124.09 18.9567 123.737 19.23C123.39 19.5033 123.137 19.8867 122.977 20.38C122.817 20.8733 122.737 21.4467 122.737 22.1C122.737 22.7533 122.817 23.3267 122.977 23.82C123.137 24.3133 123.397 24.6967 123.757 24.97C124.124 25.2433 124.61 25.38 125.217 25.38ZM137.698 27.8C136.611 27.8 135.658 27.5567 134.838 27.07C134.018 26.5833 133.378 25.9133 132.918 25.06C132.464 24.2 132.238 23.2133 132.238 22.1C132.238 20.9733 132.471 19.9833 132.938 19.13C133.404 18.27 134.048 17.6 134.868 17.12C135.688 16.64 136.631 16.4 137.698 16.4C138.784 16.4 139.738 16.6433 140.558 17.13C141.384 17.6167 142.028 18.29 142.488 19.15C142.948 20.0033 143.178 20.9867 143.178 22.1C143.178 23.22 142.944 24.21 142.478 25.07C142.018 25.9233 141.374 26.5933 140.548 27.08C139.728 27.56 138.778 27.8 137.698 27.8ZM137.698 25.26C138.571 25.26 139.221 24.9667 139.648 24.38C140.081 23.7867 140.298 23.0267 140.298 22.1C140.298 21.14 140.078 20.3733 139.638 19.8C139.204 19.2267 138.558 18.94 137.698 18.94C137.104 18.94 136.618 19.0733 136.238 19.34C135.858 19.6067 135.574 19.9767 135.388 20.45C135.208 20.9233 135.118 21.4733 135.118 22.1C135.118 23.0667 135.334 23.8367 135.768 24.41C136.208 24.9767 136.851 25.26 137.698 25.26ZM151.857 27.5C151.11 27.64 150.377 27.7 149.657 27.68C148.943 27.6667 148.303 27.5433 147.737 27.31C147.177 27.07 146.75 26.6867 146.457 26.16C146.19 25.6667 146.05 25.1667 146.037 24.66C146.023 24.1467 146.017 23.5667 146.017 22.92V13.7H148.737V22.76C148.737 23.18 148.74 23.56 148.747 23.9C148.76 24.2333 148.83 24.5 148.957 24.7C149.197 25.08 149.58 25.2867 150.107 25.32C150.633 25.3533 151.217 25.3267 151.857 25.24V27.5ZM144.177 18.8V16.7H151.857V18.8H144.177ZM154.463 27.5V12.8H157.183V27.5H154.463ZM160.381 15.2V12.8H163.101V15.2H160.381ZM160.381 27.5V16.7H163.101V27.5H160.381ZM170.719 32.6C170.106 32.6 169.523 32.5 168.969 32.3C168.416 32.1067 167.919 31.8333 167.479 31.48C167.046 31.1333 166.693 30.7267 166.419 30.26L168.939 29.04C169.113 29.36 169.359 29.6033 169.679 29.77C170.006 29.9367 170.359 30.02 170.739 30.02C171.146 30.02 171.529 29.95 171.889 29.81C172.249 29.6767 172.536 29.4733 172.749 29.2C172.969 28.9333 173.073 28.6 173.059 28.2V25.06H173.399V16.7H175.779V28.24C175.779 28.5067 175.766 28.7567 175.739 28.99C175.719 29.23 175.679 29.4667 175.619 29.7C175.446 30.36 175.123 30.9033 174.649 31.33C174.183 31.7567 173.609 32.0733 172.929 32.28C172.249 32.4933 171.513 32.6 170.719 32.6ZM170.479 27.8C169.486 27.8 168.616 27.55 167.869 27.05C167.123 26.55 166.539 25.87 166.119 25.01C165.706 24.15 165.499 23.18 165.499 22.1C165.499 21 165.709 20.0233 166.129 19.17C166.556 18.31 167.153 17.6333 167.919 17.14C168.686 16.6467 169.586 16.4 170.619 16.4C171.646 16.4 172.509 16.65 173.209 17.15C173.909 17.65 174.439 18.33 174.799 19.19C175.159 20.05 175.339 21.02 175.339 22.1C175.339 23.18 175.156 24.15 174.789 25.01C174.429 25.87 173.889 26.55 173.169 27.05C172.449 27.55 171.553 27.8 170.479 27.8ZM170.919 25.38C171.526 25.38 172.009 25.2433 172.369 24.97C172.736 24.6967 172.999 24.3133 173.159 23.82C173.319 23.3267 173.399 22.7533 173.399 22.1C173.399 21.4467 173.319 20.8733 173.159 20.38C172.999 19.8867 172.743 19.5033 172.389 19.23C172.043 18.9567 171.586 18.82 171.019 18.82C170.413 18.82 169.913 18.97 169.519 19.27C169.133 19.5633 168.846 19.96 168.659 20.46C168.473 20.9533 168.379 21.5 168.379 22.1C168.379 22.7067 168.469 23.26 168.649 23.76C168.829 24.2533 169.106 24.6467 169.479 24.94C169.853 25.2333 170.333 25.38 170.919 25.38ZM185.94 27.5V22.4C185.94 22.1533 185.926 21.84 185.9 21.46C185.873 21.0733 185.79 20.6867 185.65 20.3C185.51 19.9133 185.28 19.59 184.96 19.33C184.646 19.07 184.2 18.94 183.62 18.94C183.386 18.94 183.136 18.9767 182.87 19.05C182.603 19.1233 182.353 19.2667 182.12 19.48C181.886 19.6867 181.693 19.9933 181.54 20.4C181.393 20.8067 181.32 21.3467 181.32 22.02L179.76 21.28C179.76 20.4267 179.933 19.6267 180.28 18.88C180.626 18.1333 181.146 17.53 181.84 17.07C182.54 16.61 183.42 16.38 184.48 16.38C185.326 16.38 186.016 16.5233 186.55 16.81C187.083 17.0967 187.496 17.46 187.79 17.9C188.09 18.34 188.303 18.8 188.43 19.28C188.556 19.7533 188.633 20.1867 188.66 20.58C188.686 20.9733 188.7 21.26 188.7 21.44V27.5H185.94ZM178.56 27.5V13.1H180.98V20.5H181.32V27.5H178.56ZM197.775 27.5C197.028 27.64 196.295 27.7 195.575 27.68C194.861 27.6667 194.221 27.5433 193.655 27.31C193.095 27.07 192.668 26.6867 192.375 26.16C192.108 25.6667 191.968 25.1667 191.955 24.66C191.941 24.1467 191.935 23.5667 191.935 22.92V13.7H194.655V22.76C194.655 23.18 194.658 23.56 194.665 23.9C194.678 24.2333 194.748 24.5 194.875 24.7C195.115 25.08 195.498 25.2867 196.025 25.32C196.551 25.3533 197.135 25.3267 197.775 25.24V27.5ZM190.095 18.8V16.7H197.775V18.8H190.095Z" fill="white"/>
</svg>
