<svg width="250" height="40" viewBox="0 0 250 40" fill="none" xmlns="http://www.w3.org/2000/svg">
<path d="M10.2788 2.85061C10.7931 1.15867 12.371 0 14.1607 0H244.816C247.531 0 249.478 2.58294 248.698 5.14939L238.971 37.1494C238.457 38.8413 236.879 40 235.089 40H4.43392C1.71907 40 -0.228107 37.4171 0.551999 34.8506L10.2788 2.85061Z" fill="#F4796C"/>
<path d="M29.5497 27.5V13.1H38.9497V15.64H32.2697V18.72H37.7497V21.26H32.2697V24.96H38.9497V27.5H29.5497ZM40.1466 27.5L44.0066 22.04L40.2266 16.7H43.4266L45.5866 19.9L47.7066 16.7H50.9066L47.1266 22.04L51.0066 27.5H47.8066L45.5866 24.18L43.3466 27.5H40.1466ZM56.9855 27.8C55.8655 27.8 54.9055 27.55 54.1055 27.05C53.3055 26.55 52.6922 25.87 52.2655 25.01C51.8388 24.15 51.6255 23.18 51.6255 22.1C51.6255 21.0067 51.8455 20.03 52.2855 19.17C52.7322 18.31 53.3588 17.6333 54.1655 17.14C54.9722 16.6467 55.9255 16.4 57.0255 16.4C58.2988 16.4 59.3655 16.7233 60.2255 17.37C61.0922 18.01 61.6455 18.8867 61.8855 20L59.1655 20.72C59.0055 20.16 58.7255 19.7233 58.3255 19.41C57.9322 19.0967 57.4855 18.94 56.9855 18.94C56.4122 18.94 55.9422 19.08 55.5755 19.36C55.2088 19.6333 54.9388 20.01 54.7655 20.49C54.5922 20.9633 54.5055 21.5 54.5055 22.1C54.5055 23.04 54.7122 23.8033 55.1255 24.39C55.5455 24.97 56.1655 25.26 56.9855 25.26C57.5988 25.26 58.0655 25.12 58.3855 24.84C58.7055 24.56 58.9455 24.16 59.1055 23.64L61.8855 24.22C61.5788 25.3667 60.9988 26.25 60.1455 26.87C59.2922 27.49 58.2388 27.8 56.9855 27.8ZM63.7927 15.2V12.8H66.5127V15.2H63.7927ZM63.7927 27.5V16.7H66.5127V27.5H63.7927ZM75.9906 27.5C75.244 27.64 74.5106 27.7 73.7906 27.68C73.0773 27.6667 72.4373 27.5433 71.8706 27.31C71.3106 27.07 70.884 26.6867 70.5906 26.16C70.324 25.6667 70.184 25.1667 70.1706 24.66C70.1573 24.1467 70.1506 23.5667 70.1506 22.92V13.7H72.8706V22.76C72.8706 23.18 72.874 23.56 72.8806 23.9C72.894 24.2333 72.964 24.5 73.0906 24.7C73.3306 25.08 73.714 25.2867 74.2406 25.32C74.7673 25.3533 75.3506 25.3267 75.9906 25.24V27.5ZM68.3106 18.8V16.7H75.9906V18.8H68.3106ZM78.5974 15.2V12.8H81.3174V15.2H78.5974ZM78.5974 27.5V16.7H81.3174V27.5H78.5974ZM91.6753 27.5V22.4C91.6753 22.1533 91.662 21.84 91.6353 21.46C91.6087 21.0733 91.5253 20.6867 91.3853 20.3C91.2453 19.9133 91.0153 19.59 90.6953 19.33C90.382 19.07 89.9353 18.94 89.3553 18.94C89.122 18.94 88.872 18.9767 88.6053 19.05C88.3387 19.1233 88.0887 19.2667 87.8553 19.48C87.622 19.6867 87.4287 19.9933 87.2753 20.4C87.1287 20.8067 87.0553 21.3467 87.0553 22.02L85.4953 21.28C85.4953 20.4267 85.6687 19.6267 86.0153 18.88C86.362 18.1333 86.882 17.53 87.5753 17.07C88.2753 16.61 89.1553 16.38 90.2153 16.38C91.062 16.38 91.752 16.5233 92.2853 16.81C92.8187 17.0967 93.232 17.46 93.5253 17.9C93.8253 18.34 94.0387 18.8 94.1653 19.28C94.292 19.7533 94.3687 20.1867 94.3953 20.58C94.422 20.9733 94.4353 21.26 94.4353 21.44V27.5H91.6753ZM84.2953 27.5V16.7H86.7153V20.28H87.0553V27.5H84.2953ZM101.65 32.6C101.037 32.6 100.454 32.5 99.9002 32.3C99.3468 32.1067 98.8502 31.8333 98.4102 31.48C97.9768 31.1333 97.6235 30.7267 97.3502 30.26L99.8702 29.04C100.044 29.36 100.29 29.6033 100.61 29.77C100.937 29.9367 101.29 30.02 101.67 30.02C102.077 30.02 102.46 29.95 102.82 29.81C103.18 29.6767 103.467 29.4733 103.68 29.2C103.9 28.9333 104.004 28.6 103.99 28.2V25.06H104.33V16.7H106.71V28.24C106.71 28.5067 106.697 28.7567 106.67 28.99C106.65 29.23 106.61 29.4667 106.55 29.7C106.377 30.36 106.054 30.9033 105.58 31.33C105.114 31.7567 104.54 32.0733 103.86 32.28C103.18 32.4933 102.444 32.6 101.65 32.6ZM101.41 27.8C100.417 27.8 99.5468 27.55 98.8002 27.05C98.0535 26.55 97.4702 25.87 97.0502 25.01C96.6368 24.15 96.4302 23.18 96.4302 22.1C96.4302 21 96.6402 20.0233 97.0602 19.17C97.4868 18.31 98.0835 17.6333 98.8502 17.14C99.6168 16.6467 100.517 16.4 101.55 16.4C102.577 16.4 103.44 16.65 104.14 17.15C104.84 17.65 105.37 18.33 105.73 19.19C106.09 20.05 106.27 21.02 106.27 22.1C106.27 23.18 106.087 24.15 105.72 25.01C105.36 25.87 104.82 26.55 104.1 27.05C103.38 27.55 102.484 27.8 101.41 27.8ZM101.85 25.38C102.457 25.38 102.94 25.2433 103.3 24.97C103.667 24.6967 103.93 24.3133 104.09 23.82C104.25 23.3267 104.33 22.7533 104.33 22.1C104.33 21.4467 104.25 20.8733 104.09 20.38C103.93 19.8867 103.674 19.5033 103.32 19.23C102.974 18.9567 102.517 18.82 101.95 18.82C101.344 18.82 100.844 18.97 100.45 19.27C100.064 19.5633 99.7768 19.96 99.5902 20.46C99.4035 20.9533 99.3102 21.5 99.3102 22.1C99.3102 22.7067 99.4002 23.26 99.5802 23.76C99.7602 24.2533 100.037 24.6467 100.41 24.94C100.784 25.2333 101.264 25.38 101.85 25.38ZM119.695 27.8C118.255 27.8 117.011 27.4867 115.965 26.86C114.925 26.2333 114.121 25.3567 113.555 24.23C112.995 23.1033 112.715 21.7933 112.715 20.3C112.715 18.8067 112.995 17.4967 113.555 16.37C114.121 15.2433 114.925 14.3667 115.965 13.74C117.011 13.1133 118.255 12.8 119.695 12.8C121.348 12.8 122.735 13.21 123.855 14.03C124.981 14.85 125.775 15.96 126.235 17.36L123.495 18.12C123.228 17.2467 122.778 16.57 122.145 16.09C121.511 15.6033 120.695 15.36 119.695 15.36C118.781 15.36 118.018 15.5633 117.405 15.97C116.798 16.3767 116.341 16.95 116.035 17.69C115.728 18.43 115.575 19.3 115.575 20.3C115.575 21.3 115.728 22.17 116.035 22.91C116.341 23.65 116.798 24.2233 117.405 24.63C118.018 25.0367 118.781 25.24 119.695 25.24C120.695 25.24 121.511 24.9967 122.145 24.51C122.778 24.0233 123.228 23.3467 123.495 22.48L126.235 23.24C125.775 24.64 124.981 25.75 123.855 26.57C122.735 27.39 121.348 27.8 119.695 27.8ZM131.436 27.8C130.663 27.8 130.006 27.6533 129.466 27.36C128.933 27.06 128.526 26.6633 128.246 26.17C127.973 25.67 127.836 25.12 127.836 24.52C127.836 24.02 127.913 23.5633 128.066 23.15C128.22 22.7367 128.466 22.3733 128.806 22.06C129.153 21.74 129.616 21.4733 130.196 21.26C130.596 21.1133 131.073 20.9833 131.626 20.87C132.18 20.7567 132.806 20.65 133.506 20.55C134.206 20.4433 134.976 20.3267 135.816 20.2L134.836 20.74C134.836 20.1 134.683 19.63 134.376 19.33C134.07 19.03 133.556 18.88 132.836 18.88C132.436 18.88 132.02 18.9767 131.586 19.17C131.153 19.3633 130.85 19.7067 130.676 20.2L128.216 19.42C128.49 18.5267 129.003 17.8 129.756 17.24C130.51 16.68 131.536 16.4 132.836 16.4C133.79 16.4 134.636 16.5467 135.376 16.84C136.116 17.1333 136.676 17.64 137.056 18.36C137.27 18.76 137.396 19.16 137.436 19.56C137.476 19.96 137.496 20.4067 137.496 20.9V27.5H135.116V25.28L135.456 25.74C134.93 26.4667 134.36 26.9933 133.746 27.32C133.14 27.64 132.37 27.8 131.436 27.8ZM132.016 25.66C132.516 25.66 132.936 25.5733 133.276 25.4C133.623 25.22 133.896 25.0167 134.096 24.79C134.303 24.5633 134.443 24.3733 134.516 24.22C134.656 23.9267 134.736 23.5867 134.756 23.2C134.783 22.8067 134.796 22.48 134.796 22.22L135.596 22.42C134.79 22.5533 134.136 22.6667 133.636 22.76C133.136 22.8467 132.733 22.9267 132.426 23C132.12 23.0733 131.85 23.1533 131.616 23.24C131.35 23.3467 131.133 23.4633 130.966 23.59C130.806 23.71 130.686 23.8433 130.606 23.99C130.533 24.1367 130.496 24.3 130.496 24.48C130.496 24.7267 130.556 24.94 130.676 25.12C130.803 25.2933 130.98 25.4267 131.206 25.52C131.433 25.6133 131.703 25.66 132.016 25.66ZM146.577 27.5C145.83 27.64 145.097 27.7 144.377 27.68C143.663 27.6667 143.023 27.5433 142.457 27.31C141.897 27.07 141.47 26.6867 141.177 26.16C140.91 25.6667 140.77 25.1667 140.757 24.66C140.743 24.1467 140.737 23.5667 140.737 22.92V13.7H143.457V22.76C143.457 23.18 143.46 23.56 143.467 23.9C143.48 24.2333 143.55 24.5 143.677 24.7C143.917 25.08 144.3 25.2867 144.827 25.32C145.353 25.3533 145.937 25.3267 146.577 25.24V27.5ZM138.897 18.8V16.7H146.577V18.8H138.897ZM153.417 27.8C152.311 27.8 151.334 27.5633 150.487 27.09C149.647 26.61 148.987 25.9533 148.507 25.12C148.034 24.28 147.797 23.32 147.797 22.24C147.797 21.06 148.031 20.0333 148.497 19.16C148.964 18.2867 149.607 17.61 150.427 17.13C151.247 16.6433 152.191 16.4 153.257 16.4C154.391 16.4 155.354 16.6667 156.147 17.2C156.941 17.7333 157.527 18.4833 157.907 19.45C158.287 20.4167 158.421 21.5533 158.307 22.86H155.617V21.86C155.617 20.76 155.441 19.97 155.087 19.49C154.741 19.0033 154.171 18.76 153.377 18.76C152.451 18.76 151.767 19.0433 151.327 19.61C150.894 20.17 150.677 21 150.677 22.1C150.677 23.1067 150.894 23.8867 151.327 24.44C151.767 24.9867 152.411 25.26 153.257 25.26C153.791 25.26 154.247 25.1433 154.627 24.91C155.007 24.6767 155.297 24.34 155.497 23.9L158.217 24.68C157.811 25.6667 157.167 26.4333 156.287 26.98C155.414 27.5267 154.457 27.8 153.417 27.8ZM149.837 22.86V20.84H156.997V22.86H149.837ZM165.185 32.6C164.572 32.6 163.989 32.5 163.435 32.3C162.882 32.1067 162.385 31.8333 161.945 31.48C161.512 31.1333 161.159 30.7267 160.885 30.26L163.405 29.04C163.579 29.36 163.825 29.6033 164.145 29.77C164.472 29.9367 164.825 30.02 165.205 30.02C165.612 30.02 165.995 29.95 166.355 29.81C166.715 29.6767 167.002 29.4733 167.215 29.2C167.435 28.9333 167.539 28.6 167.525 28.2V25.06H167.865V16.7H170.245V28.24C170.245 28.5067 170.232 28.7567 170.205 28.99C170.185 29.23 170.145 29.4667 170.085 29.7C169.912 30.36 169.589 30.9033 169.115 31.33C168.649 31.7567 168.075 32.0733 167.395 32.28C166.715 32.4933 165.979 32.6 165.185 32.6ZM164.945 27.8C163.952 27.8 163.082 27.55 162.335 27.05C161.589 26.55 161.005 25.87 160.585 25.01C160.172 24.15 159.965 23.18 159.965 22.1C159.965 21 160.175 20.0233 160.595 19.17C161.022 18.31 161.619 17.6333 162.385 17.14C163.152 16.6467 164.052 16.4 165.085 16.4C166.112 16.4 166.975 16.65 167.675 17.15C168.375 17.65 168.905 18.33 169.265 19.19C169.625 20.05 169.805 21.02 169.805 22.1C169.805 23.18 169.622 24.15 169.255 25.01C168.895 25.87 168.355 26.55 167.635 27.05C166.915 27.55 166.019 27.8 164.945 27.8ZM165.385 25.38C165.992 25.38 166.475 25.2433 166.835 24.97C167.202 24.6967 167.465 24.3133 167.625 23.82C167.785 23.3267 167.865 22.7533 167.865 22.1C167.865 21.4467 167.785 20.8733 167.625 20.38C167.465 19.8867 167.209 19.5033 166.855 19.23C166.509 18.9567 166.052 18.82 165.485 18.82C164.879 18.82 164.379 18.97 163.985 19.27C163.599 19.5633 163.312 19.96 163.125 20.46C162.939 20.9533 162.845 21.5 162.845 22.1C162.845 22.7067 162.935 23.26 163.115 23.76C163.295 24.2533 163.572 24.6467 163.945 24.94C164.319 25.2333 164.799 25.38 165.385 25.38ZM177.906 27.8C176.819 27.8 175.866 27.5567 175.046 27.07C174.226 26.5833 173.586 25.9133 173.126 25.06C172.672 24.2 172.446 23.2133 172.446 22.1C172.446 20.9733 172.679 19.9833 173.146 19.13C173.612 18.27 174.256 17.6 175.076 17.12C175.896 16.64 176.839 16.4 177.906 16.4C178.992 16.4 179.946 16.6433 180.766 17.13C181.592 17.6167 182.236 18.29 182.696 19.15C183.156 20.0033 183.386 20.9867 183.386 22.1C183.386 23.22 183.152 24.21 182.686 25.07C182.226 25.9233 181.582 26.5933 180.756 27.08C179.936 27.56 178.986 27.8 177.906 27.8ZM177.906 25.26C178.779 25.26 179.429 24.9667 179.856 24.38C180.289 23.7867 180.506 23.0267 180.506 22.1C180.506 21.14 180.286 20.3733 179.846 19.8C179.412 19.2267 178.766 18.94 177.906 18.94C177.312 18.94 176.826 19.0733 176.446 19.34C176.066 19.6067 175.782 19.9767 175.596 20.45C175.416 20.9233 175.326 21.4733 175.326 22.1C175.326 23.0667 175.542 23.8367 175.976 24.41C176.416 24.9767 177.059 25.26 177.906 25.26ZM185.585 27.5V16.7H187.985V19.34L187.725 19C187.865 18.6267 188.052 18.2867 188.285 17.98C188.518 17.6733 188.805 17.42 189.145 17.22C189.405 17.06 189.688 16.9367 189.995 16.85C190.302 16.7567 190.618 16.7 190.945 16.68C191.272 16.6533 191.598 16.66 191.925 16.7V19.24C191.625 19.1467 191.275 19.1167 190.875 19.15C190.482 19.1767 190.125 19.2667 189.805 19.42C189.485 19.5667 189.215 19.7633 188.995 20.01C188.775 20.25 188.608 20.5367 188.495 20.87C188.382 21.1967 188.325 21.5667 188.325 21.98V27.5H185.585ZM194.027 15.2V12.8H196.747V15.2H194.027ZM194.027 27.5V16.7H196.747V27.5H194.027ZM204.765 27.8C203.658 27.8 202.682 27.5633 201.835 27.09C200.995 26.61 200.335 25.9533 199.855 25.12C199.382 24.28 199.145 23.32 199.145 22.24C199.145 21.06 199.378 20.0333 199.845 19.16C200.312 18.2867 200.955 17.61 201.775 17.13C202.595 16.6433 203.538 16.4 204.605 16.4C205.738 16.4 206.702 16.6667 207.495 17.2C208.288 17.7333 208.875 18.4833 209.255 19.45C209.635 20.4167 209.768 21.5533 209.655 22.86H206.965V21.86C206.965 20.76 206.788 19.97 206.435 19.49C206.088 19.0033 205.518 18.76 204.725 18.76C203.798 18.76 203.115 19.0433 202.675 19.61C202.242 20.17 202.025 21 202.025 22.1C202.025 23.1067 202.242 23.8867 202.675 24.44C203.115 24.9867 203.758 25.26 204.605 25.26C205.138 25.26 205.595 25.1433 205.975 24.91C206.355 24.6767 206.645 24.34 206.845 23.9L209.565 24.68C209.158 25.6667 208.515 26.4333 207.635 26.98C206.762 27.5267 205.805 27.8 204.765 27.8ZM201.185 22.86V20.84H208.345V22.86H201.185ZM216.133 27.8C214.773 27.8 213.673 27.4933 212.833 26.88C212 26.26 211.493 25.3867 211.313 24.26L214.093 23.84C214.206 24.3467 214.456 24.7433 214.843 25.03C215.236 25.3167 215.733 25.46 216.333 25.46C216.826 25.46 217.206 25.3667 217.473 25.18C217.74 24.9867 217.873 24.72 217.873 24.38C217.873 24.1667 217.82 23.9967 217.713 23.87C217.606 23.7367 217.366 23.6067 216.993 23.48C216.626 23.3533 216.053 23.1867 215.273 22.98C214.393 22.7533 213.69 22.5 213.163 22.22C212.636 21.94 212.256 21.6067 212.023 21.22C211.79 20.8267 211.673 20.3533 211.673 19.8C211.673 19.1067 211.85 18.5067 212.203 18C212.556 17.4867 213.053 17.0933 213.693 16.82C214.34 16.54 215.1 16.4 215.973 16.4C216.82 16.4 217.57 16.53 218.223 16.79C218.876 17.05 219.403 17.42 219.803 17.9C220.21 18.38 220.46 18.9467 220.553 19.6L217.773 20.1C217.726 19.7 217.553 19.3833 217.253 19.15C216.953 18.9167 216.546 18.78 216.033 18.74C215.533 18.7067 215.13 18.7733 214.823 18.94C214.523 19.1067 214.373 19.3467 214.373 19.66C214.373 19.8467 214.436 20.0033 214.563 20.13C214.696 20.2567 214.966 20.3867 215.373 20.52C215.786 20.6533 216.413 20.8267 217.253 21.04C218.073 21.2533 218.73 21.5033 219.223 21.79C219.723 22.07 220.086 22.41 220.313 22.81C220.54 23.2033 220.653 23.68 220.653 24.24C220.653 25.3467 220.253 26.2167 219.453 26.85C218.653 27.4833 217.546 27.8 216.133 27.8Z" fill="white"/>
</svg>
